<svg xmlns="http://www.w3.org/2000/svg" viewBox="0 0 549.23 569.53"><defs><style>.cls-1{font-size:202.66px;}.cls-1,.cls-2,.cls-3,.cls-7{fill:#231f20;}.cls-1,.cls-2{font-family:Gadugi-Bold, Gadugi;font-weight:700;}.cls-2{font-size:48.5px;}.cls-4{fill:#fff;}.cls-5{fill:#f7941d;}.cls-6{fill:none;stroke:#231f20;stroke-miterlimit:10;}.cls-7{opacity:0.55;}</style></defs><g id="GHO"><text class="cls-1" transform="translate(0 500.53) scale(1.14 1)">HRM</text><text class="cls-2" transform="translate(13.28 557.95) scale(0.74 1)">Human Resource management</text><path class="cls-3" d="M92.1,97.36S98.89,86,98.28,86.51s8-8.13,8-8.13,12.35-9.22,12.35-8.68,341-1.13,340.42,0,13.59,8.16,13.59,8.16l9.89,8.68,3.7,10.85V332.75H92.1Z" transform="translate(-20.98 -69.29)"/><path class="cls-3" d="M365.79,352.27s8.49-8.95,8-8.13,168.66-.06,168.66-.06v22.84l-5.09,6.91-6.49,7.73H47.15l-7.66-9.36s-7.47-6.5-5.23-7.72,2.7-20.4,2.7-20.4H207.47l5.36,10.63Z" transform="translate(-20.98 -69.29)"/></g><g id="Layer_3" data-name="Layer 3"><path class="cls-4" d="M243.17,95.54H365s-19,53.28-19,54.5-12.51,28.07-13,30.11-12.05,29.28-13,30.91-28.26,14.24-28.26,14.24-44-48.82-43.56-50-14.36-27.25-13.9-28.47-6.49-35.39-7.41-37-7.42-14.23-7.42-14.23Z" transform="translate(-20.98 -69.29)"/></g><g id="Layer_4" data-name="Layer 4"><path class="cls-5" d="M253.37,95.54l6,12.2s8.8,12.61,8.8,13.83S284,139.87,284,139.87l15.75,16.68,6.95,5.7L321,142.32l10.19-17.9L340,107.74l5.09-12.2H458.64L461,309.91H119V95.54Z" transform="translate(-20.98 -69.29)"/><path class="cls-3" d="M250.07,98.32l9.54,15.38a166.35,166.35,0,0,0,9.66,14.43,153.13,153.13,0,0,0,22.28,22.61c4.67,4,9.47,7.76,14.29,11.55a2.58,2.58,0,0,0,3.53,0,2.52,2.52,0,0,0,0-3.54A306.81,306.81,0,0,1,285,138.13a130.12,130.12,0,0,1-10.74-11.66A133.4,133.4,0,0,1,265,112.84l-10.57-17c-1.69-2.73-6-.22-4.32,2.53Z" transform="translate(-20.98 -69.29)"/><path class="cls-3" d="M343.36,95.26c-7.52,15.54-15.09,31.11-24.28,45.75S299,169.17,285.51,180.1c-7.42,6-15.38,11.31-23.27,16.67q-12.5,8.5-25,16.95c-16.56,11.12-33.37,21.82-50.25,32.46-8.09,5.1-16.11,10.34-23.71,16.16a188.64,188.64,0,0,0-21.37,19.07q-2.38,2.49-4.68,5.06c-2.13,2.4,1.39,5.95,3.54,3.54a185.3,185.3,0,0,1,20.49-19.72,241.32,241.32,0,0,1,23.29-16.63c8.23-5.29,16.58-10.38,24.83-15.66q12.83-8.2,25.49-16.69t25-16.9c8-5.46,16.14-10.81,23.88-16.66a144.68,144.68,0,0,0,20.3-18.33A174.47,174.47,0,0,0,319.87,149c9.64-14.43,17.48-30,25.06-45.53q1.38-2.83,2.75-5.67a2.56,2.56,0,0,0-.9-3.42,2.51,2.51,0,0,0-3.42.89Z" transform="translate(-20.98 -69.29)"/><path class="cls-3" d="M221.89,98a36.55,36.55,0,0,0,6.4,8.59c2.26,2.45,4.47,4.94,6.48,7.6,4,5.27,7.5,10.89,11,16.5C252.93,142.1,260.28,153.42,271,162c7.05,5.62,14.43,10.86,21.67,16.25a2.51,2.51,0,0,0,3.42-.9,2.56,2.56,0,0,0-.9-3.42c-6.33-4.71-12.72-9.36-19-14.16a79.42,79.42,0,0,1-14.27-14.05c-8-10.23-13.93-21.95-21.6-32.44a104.36,104.36,0,0,0-7-8.67c-2.61-2.86-5.34-5.6-7-9.13a2.52,2.52,0,0,0-3.42-.9,2.56,2.56,0,0,0-.9,3.42Z" transform="translate(-20.98 -69.29)"/><path class="cls-3" d="M366.23,94.68c-1,20.86-15.78,38-28,53.71-13.6,17.41-27.45,34.73-43.26,50.21a228.19,228.19,0,0,1-23.89,20.46c-7.75,5.73-15.82,11-24,16.11-16.34,10.2-33.15,19.7-48.93,30.78A214,214,0,0,0,175.7,283.8c-3.47,3.2-6.81,6.56-10,10.08s-6.77,7.47-9.2,11.72a12.56,12.56,0,0,0-1.89,7.61,2.57,2.57,0,0,0,2.5,2.5,2.52,2.52,0,0,0,2.5-2.5c-.32-2.62.91-4.81,2.37-6.9,1.31-1.88,2.77-3.65,4.24-5.41a137.48,137.48,0,0,1,9.65-10.4,188.55,188.55,0,0,1,21.59-18c15.61-11.29,32.37-20.85,48.74-31,17.12-10.56,33.67-21.9,48.37-35.71,16.12-15.14,30.17-32.31,43.81-49.68,6.62-8.43,13.44-16.79,19.38-25.73,5.68-8.54,10.6-17.94,12.53-28.11a56.06,56.06,0,0,0,.9-7.64c.15-3.22-4.85-3.21-5,0Z" transform="translate(-20.98 -69.29)"/><path class="cls-3" d="M137.29,286.35c-.15,1.49-1.81,3-2.5,4.23a22.29,22.29,0,0,0-2,6.12,69.61,69.61,0,0,0-1.5,13.5c0,3.22,5,3.22,5,0a61.62,61.62,0,0,1,1.52-13.05,14.92,14.92,0,0,1,2.16-5.34,11.28,11.28,0,0,0,2.37-5.46,2.53,2.53,0,0,0-2.5-2.5,2.55,2.55,0,0,0-2.5,2.5Z" transform="translate(-20.98 -69.29)"/></g><g id="Khabney"><path class="cls-6" d="M390.24,94.68l-1,9L384.72,123l-3.41,11.31-6.7,27.49-2.46,16.4-3.7,18.76-5.92,15.51s-6,4.11-7.39,5.22-8,7.05-7.12,7.64.17,14.41.17,14.41l.85,3.83s-27.24,22.23-27.83,22.59S270.58,290,270.58,290l-49.13,12.55s-28.58,6.21-28.58,7.64,128-.29,128.34-.29" transform="translate(-20.98 -69.29)"/></g><g id="sketch"><path class="cls-3" d="M463.36,218.07a20.28,20.28,0,0,0-11.52-12.22c-6.35-2.74-13.41-2.53-20-.86a55.32,55.32,0,0,0-18.47,8.35c-5.54,4-10.07,9.09-14.5,14.23a28.86,28.86,0,0,0-5.49,8.22c-1.26,3.23-.73,6.26-.07,9.55a6.31,6.31,0,0,1,.06,3.42c-.53,1.37-2,2.4-3.08,3.31a40.28,40.28,0,0,1-8,5.17c-6.12,3-13.13,3.47-19.11,6.81a70.36,70.36,0,0,0-8.46,5.9c-2.84,2.19-5.65,4.42-8.4,6.72-11.94,10-24.5,22.05-25.87,38.45a2.52,2.52,0,0,0,2.5,2.5,2.55,2.55,0,0,0,2.5-2.5c1.11-13.26,11.33-23.63,20.85-31.89a192.62,192.62,0,0,1,16-12.69,29.42,29.42,0,0,1,8.51-4.26c3-.91,6.15-1.53,9.14-2.62,5.8-2.12,11.81-5.43,16.07-10,2.4-2.55,2.93-5.49,2.36-8.86-.47-2.77-1.23-5.14,0-7.85s3.35-5,5.28-7.2c2.11-2.43,4.25-4.84,6.54-7.11a47.65,47.65,0,0,1,15.3-10.24c6.51-2.7,14.05-4.82,21.1-3.14,5.28,1.25,10.37,4.76,12.07,10.11,1,3.06,5.8,1.75,4.82-1.33Z" transform="translate(-20.98 -69.29)"/><path class="cls-4" d="M389.86,98.22c-1.63,18.52-9.47,35.89-13.46,54.05-4.67,21.23-4.32,44.27-15.42,63-10.29,1.69-15.83,14.51-12.79,24.48.55,1.81,1.31,3.79.5,5.49a6.71,6.71,0,0,1-1.72,2c-21.14,18.56-46.56,31.74-72.93,41.54s-53.81,16.36-81.17,22.89l130.88-1.72,3.65-9,5.68-8.12,8.08-8.38,11.69-9.9,11.42-8.25,5.52-2.32,8.76-2.48,9.62-4.75,6.93-6,.93-3.81-.93-8,1.2-3.66,4.31-5.95,6.14-6.86,6.2-5.72,7.6-4.84s7.62-3.22,8.13-3.39,8.17-2,8.17-2l8-.1s5.52,1.45,5.92,1.62,4.52,2.67,4.52,2.67l4.69,5.53-1.3-120.73h-68.4Z" transform="translate(-20.98 -69.29)"/><path class="cls-3" d="M387.36,98.22c-1.49,16.4-7.86,31.81-12,47.63-3.85,14.74-4.75,30-8,44.86A78.1,78.1,0,0,1,358.82,214l1.5-1.15c-11,2-16.66,14.35-15.18,24.59a21.88,21.88,0,0,0,.77,3.39c.44,1.44,1.13,2.84-.05,4a84,84,0,0,1-7.78,6.53,190.32,190.32,0,0,1-16.9,11.84c-24.32,15.25-51.37,25.34-78.85,33.24-16.57,4.77-33.36,8.78-50.13,12.78-2.75.66-2.15,4.95.67,4.91l13.07-.17,31.24-.41,37.77-.5,32.75-.43c5.26-.07,10.56,0,15.81-.21h.24a2.61,2.61,0,0,0,2.41-1.84c1.2-3,2.46-5.91,3.61-8.89.16-.4-.48.7-.13.37a3.59,3.59,0,0,0,.45-.63l1.63-2.34c1.1-1.57,2.23-3.13,3.3-4.72.52-.77-.58.57.08-.07s1-1.05,1.52-1.58l4.53-4.69a70.57,70.57,0,0,1,5.27-4.8l5.08-4.3c1-.85,2.12-1.65,3-2.59.28-.28-.67.47-.37.29.15-.09.29-.21.43-.31l1.8-1.3,5.32-3.84a24,24,0,0,0,3.66-2.64c.32-.34-.4.12-.39.12l.81-.34,3-1.25a77.61,77.61,0,0,1,9.09-2.8c2.95-.83,5.66-2.46,8.4-3.82a19.4,19.4,0,0,0,3.71-2c1.27-1,2.5-2.16,3.74-3.23s2.8-1.95,3.56-3.23a10,10,0,0,0,.74-2.63,10.94,10.94,0,0,0,.53-2.45,46.87,46.87,0,0,0-.59-5c-.09-.84-.15-1.69-.29-2.52s.08.18-.13.2a5.7,5.7,0,0,0,.31-1,10.18,10.18,0,0,0,.86-2.62c0,.29-.43.72,0,.26.27-.3.48-.67.72-1,1.1-1.52,2.26-3,3.31-4.56.27-.41-.55.6-.23.3a5.57,5.57,0,0,0,.51-.58l1.95-2.17c1.18-1.31,2.31-2.69,3.54-4,.91-.93,1.92-1.78,2.87-2.66l2.35-2.17c.26-.24.52-.47.77-.72.5-.48,0,.14-.21.13.35,0,1.17-.75,1.47-.94l2.75-1.75,2.52-1.6c.15-.1.81-.38.88-.55s-.66.27-.24.1L422,214l1.26-.52,3.17-1.33a26.46,26.46,0,0,1,3.75-1.41c2-.5,4-1,6.05-1.46.33-.08.67-.14,1-.24.6-.18-.37,0-.32,0a7.86,7.86,0,0,0,2.11,0l3.35,0a13.34,13.34,0,0,0,2.28,0c.42-.09-.83-.24-.34-.05a9.39,9.39,0,0,0,1,.28l3.22.86c.39.11.79.25,1.18.34.61.14-.63-.39.07,0,.89.56,1.81,1.07,2.72,1.61.36.21.71.44,1.08.65.08,0,.2.16.29.17s-.45-.51-.37-.27c.17.55,1.06,1.26,1.43,1.69l3.18,3.76c1.43,1.69,4.29.29,4.27-1.77l-.13-12L462,175.46l-.38-34.87-.32-30.16c-.06-4.89.05-9.8-.16-14.68a1.47,1.47,0,0,1,0-.21,2.54,2.54,0,0,0-2.5-2.5h-68.4a2.52,2.52,0,0,0-2.41,1.83l-.38,2.68a2.59,2.59,0,0,0,1.75,3.08,2.51,2.51,0,0,0,3.07-1.75l.38-2.68L390.24,98h68.4l-2.5-2.5.13,12,.31,28.82.37,34.87.33,30.16.11,10c0,1.55-.1,3.16.05,4.7a1.47,1.47,0,0,1,0,.21l4.27-1.76c-2-2.35-3.75-5.07-6.42-6.66a20.17,20.17,0,0,0-4.65-2.42c-1.7-.49-3.42-1-5.15-1.38a24.91,24.91,0,0,0-5.18,0,22.43,22.43,0,0,0-4.34.18,52.14,52.14,0,0,0-9.29,2.47,55.56,55.56,0,0,0-9,4.11,53.7,53.7,0,0,0-8,5.55,95.74,95.74,0,0,0-12.92,14c-1,1.34-2.36,2.74-2.94,4.31-.5,1.33-1.32,3-1.28,4.45.06,1.79.43,3.61.63,5.38a11.75,11.75,0,0,0,.27,2.3c.17.49.25-.86.05-.25-.14.41-.21.86-.32,1.29l-.55,2.27.64-1.1L389.77,252l-2.43,2.09c-.24.21-.49.41-.72.62-.46.42.17-.21.26-.19-.31-.06-1.25.62-1.52.75l-2.9,1.44c-1.65.81-3.34,1.56-4.95,2.45-.5.27.27-.15.34-.14a2.09,2.09,0,0,0-.59.17l-2.75.78c-1.75.49-3.55.91-5.27,1.49-1.45.49-2.86,1.18-4.27,1.78a13.79,13.79,0,0,0-3,1.54l-9.74,7c-2.22,1.6-4.25,3.47-6.34,5.24s-4.64,3.69-6.73,5.74c-2.62,2.58-5.19,5.26-7.68,8a27.84,27.84,0,0,0-2.13,2.91l-3.63,5.2a14.75,14.75,0,0,0-1.45,3L321.85,308l-.51,1.27,2.41-1.83-13.07.17-31.24.41-37.77.5-32.76.43-10.71.14c-1.68,0-3.43-.08-5.1.07h-.23l.66,4.91c23.52-5.61,47.08-11.24,70-19,20.93-7,41.41-15.82,60.15-27.57q6.87-4.31,13.37-9.14,3.42-2.53,6.71-5.23a47.69,47.69,0,0,0,6.07-5.27c2-2.35,1.87-5.17,1-8a20,20,0,0,1-1-5.68A19.24,19.24,0,0,1,353,223.46a13.46,13.46,0,0,1,8.34-5.76c1.49-.38,2-1.51,2.72-2.77s1.26-2.38,1.84-3.6a76.62,76.62,0,0,0,3.1-7.63c3.49-10,5-20.54,6.48-31a233.13,233.13,0,0,1,6.66-32.47c3.24-11,7.06-22,9.07-33.33q.76-4.34,1.17-8.71a2.52,2.52,0,0,0-2.5-2.5A2.55,2.55,0,0,0,387.36,98.22Z" transform="translate(-20.98 -69.29)"/></g><g id="shadows"><path class="cls-7" d="M380,230.1l-1.22,6.12-2.6,7.18-3.52,5.66s4.89.76,5.2,0,4.43-4.59,4.43-4.59l2.14-6.11-2.14-6.42Z" transform="translate(-20.98 -69.29)"/><path class="cls-7" d="M365,218.94c-.05-.15-4,3.52-4,3.52L358,228.57l-1.38,7.19V241l2.75-7.5,2.75-7.33,3.82-4,2.83-5.5Z" transform="translate(-20.98 -69.29)"/><path class="cls-7" d="M403.66,121.57,400.91,139l-4.28,12.84c-.31.92-4.53,14.68-4.71,15.6s-5.38,15.89-5.38,15.89L382,198.92l-3.44,8.56,4.05-1.25,5.5-7.62,3.85-12.53,3.18-13.15,3.36-12.51,5.2-15,2.45-12.53,2.14-11.31-2.14-9.18Z" transform="translate(-20.98 -69.29)"/><path class="cls-7" d="M423.54,163.45l4.58-9.48,3.36-10.39c.31-.92,2.76-10.7,2.76-10.7l1.22,8.25-1.22,7-2.14,7-4,6.72-4.58,6.73-3.67,3.06Z" transform="translate(-20.98 -69.29)"/><path class="cls-7" d="M317.14,278.1c-.92,0-9.54,7.65-9.54,7.65l-6.36,9.78-3.6,8.86-1.29,3.37h10.4l3.05-10.7L313.47,287Z" transform="translate(-20.98 -69.29)"/></g></svg>
